<?xml version="1.0" encoding="UTF-8"?>
<svg version="1.1" xmlns="http://www.w3.org/2000/svg" width="276" height="281">
<path d="M0 0 C91.08 0 182.16 0 276 0 C276 92.73 276 185.46 276 281 C184.92 281 93.84 281 0 281 C0 188.27 0 95.54 0 0 Z " fill="#FEFEFE" transform="translate(0,0)"/>
<path d="M0 0 C2.78095308 1.56024402 5.50127318 3.19258072 8.21484375 4.8671875 C10.29984241 6.11875286 12.38582246 7.36868439 14.47265625 8.6171875 C15.55579102 9.26945312 16.63892578 9.92171875 17.75488281 10.59375 C23.05486419 13.75027814 28.41740274 16.79448719 33.78182983 19.8397522 C36.74586999 21.52411949 39.70476068 23.21748248 42.6640625 24.91015625 C45.7446262 26.67156656 48.82563435 28.43195777 51.91259766 30.18212891 C76.50133908 44.12962477 76.50133908 44.12962477 80.7137022 58.53720665 C81.45312156 62.04343652 81.31751921 65.60523892 81.3293457 69.17431641 C81.3359169 70.03665894 81.3424881 70.89900146 81.34925842 71.78747559 C81.36895707 74.63956801 81.380648 77.49160779 81.390625 80.34375 C81.39470053 81.32053082 81.39877605 82.29731163 81.40297508 83.30369186 C81.42382379 88.47638486 81.43812924 93.64905144 81.44750977 98.82177734 C81.45855597 104.14787213 81.4929388 109.47354706 81.53268147 114.79949379 C81.55890951 118.90893293 81.56720722 123.01827308 81.57079124 127.12778854 C81.57564323 129.09005943 81.58721735 131.05232631 81.60582924 133.01451492 C81.78038784 152.64164753 81.78038784 152.64164753 77.15234375 160.6171875 C76.68054688 161.48472656 76.20875 162.35226563 75.72265625 163.24609375 C70.48712571 170.2503846 63.57624769 174.29559867 56.15234375 178.6171875 C55.47187988 179.01599121 54.79141602 179.41479492 54.09033203 179.82568359 C50.27804299 182.05514883 46.45256479 184.26072819 42.62109375 186.45703125 C36.79034078 189.81014869 31.01195289 193.25044343 25.23245239 196.6907959 C-15.04222856 220.64658582 -15.04222856 220.64658582 -31.265625 216.80859375 C-39.76090891 214.03442759 -47.0693035 209.72877891 -54.57861328 205.01708984 C-59.05445516 202.25568708 -63.6135377 199.63476715 -68.16015625 196.9921875 C-69.16739746 196.40373047 -70.17463867 195.81527344 -71.21240234 195.20898438 C-76.16325522 192.32066439 -81.1238766 189.45195544 -86.11430359 186.63262939 C-87.88132549 185.63416101 -89.64631974 184.63219053 -91.41088867 183.62939453 C-93.64233322 182.36347735 -95.87796073 181.10489496 -98.1184082 179.85498047 C-106.02263642 175.36048027 -113.65386206 170.67552109 -118.22265625 162.5546875 C-118.91488281 161.36166016 -118.91488281 161.36166016 -119.62109375 160.14453125 C-122.51123376 154.18937015 -123.1453493 149.15587344 -123.13818359 142.64941406 C-123.14490082 141.76727234 -123.15161804 140.88513062 -123.15853882 139.97625732 C-123.17748163 137.07005117 -123.18144137 134.16407649 -123.18359375 131.2578125 C-123.19002505 129.22768053 -123.19675366 127.19754948 -123.20376587 125.16741943 C-123.21572992 120.91399997 -123.21944767 116.66066166 -123.21826172 112.40722656 C-123.21805877 106.97578803 -123.24534066 101.54487411 -123.27980614 96.11355972 C-123.30212347 91.92004032 -123.30609775 87.72664611 -123.30504227 83.53307343 C-123.30739172 81.53173773 -123.31617803 79.53039823 -123.331707 77.5291214 C-123.43060583 63.46518045 -122.96382539 52.73552072 -112.73828125 42.09765625 C-107.48333257 37.58834218 -101.52831663 34.40051859 -95.47949219 31.07763672 C-91.55245315 28.89845792 -87.67470494 26.63613722 -83.79101562 24.38085938 C-80.48413955 22.46259353 -77.17060499 20.55629418 -73.85546875 18.65234375 C-69.63939684 16.22944415 -65.43101532 13.79449316 -61.23204041 11.34210205 C-58.73301508 9.88428522 -56.22983199 8.43370424 -53.72598267 6.98419189 C-52.53484526 6.29246298 -51.34546536 5.5976969 -50.15805054 4.89959717 C-32.88668925 -5.24826489 -18.8415295 -9.1493847 0 0 Z " fill="#FEFEFE" transform="translate(158.84765625,35.3828125)"/>
<path d="M0 0 C2.78095308 1.56024402 5.50127318 3.19258072 8.21484375 4.8671875 C10.29984241 6.11875286 12.38582246 7.36868439 14.47265625 8.6171875 C15.55579102 9.26945312 16.63892578 9.92171875 17.75488281 10.59375 C23.05486419 13.75027814 28.41740274 16.79448719 33.78182983 19.8397522 C36.74586999 21.52411949 39.70476068 23.21748248 42.6640625 24.91015625 C45.7446262 26.67156656 48.82563435 28.43195777 51.91259766 30.18212891 C76.50133908 44.12962477 76.50133908 44.12962477 80.7137022 58.53720665 C81.45312156 62.04343652 81.31751921 65.60523892 81.3293457 69.17431641 C81.3359169 70.03665894 81.3424881 70.89900146 81.34925842 71.78747559 C81.36895707 74.63956801 81.380648 77.49160779 81.390625 80.34375 C81.39470053 81.32053082 81.39877605 82.29731163 81.40297508 83.30369186 C81.42382379 88.47638486 81.43812924 93.64905144 81.44750977 98.82177734 C81.45855597 104.14787213 81.4929388 109.47354706 81.53268147 114.79949379 C81.55890951 118.90893293 81.56720722 123.01827308 81.57079124 127.12778854 C81.57564323 129.09005943 81.58721735 131.05232631 81.60582924 133.01451492 C81.78038784 152.64164753 81.78038784 152.64164753 77.15234375 160.6171875 C76.68054688 161.48472656 76.20875 162.35226563 75.72265625 163.24609375 C70.48712571 170.2503846 63.57624769 174.29559867 56.15234375 178.6171875 C55.47187988 179.01599121 54.79141602 179.41479492 54.09033203 179.82568359 C50.27804299 182.05514883 46.45256479 184.26072819 42.62109375 186.45703125 C36.79034078 189.81014869 31.01195289 193.25044343 25.23245239 196.6907959 C-15.04222856 220.64658582 -15.04222856 220.64658582 -31.265625 216.80859375 C-39.76090891 214.03442759 -47.0693035 209.72877891 -54.57861328 205.01708984 C-59.05445516 202.25568708 -63.6135377 199.63476715 -68.16015625 196.9921875 C-69.16739746 196.40373047 -70.17463867 195.81527344 -71.21240234 195.20898438 C-76.16325522 192.32066439 -81.1238766 189.45195544 -86.11430359 186.63262939 C-87.88132549 185.63416101 -89.64631974 184.63219053 -91.41088867 183.62939453 C-93.64233322 182.36347735 -95.87796073 181.10489496 -98.1184082 179.85498047 C-106.02263642 175.36048027 -113.65386206 170.67552109 -118.22265625 162.5546875 C-118.91488281 161.36166016 -118.91488281 161.36166016 -119.62109375 160.14453125 C-122.51123376 154.18937015 -123.1453493 149.15587344 -123.13818359 142.64941406 C-123.14490082 141.76727234 -123.15161804 140.88513062 -123.15853882 139.97625732 C-123.17748163 137.07005117 -123.18144137 134.16407649 -123.18359375 131.2578125 C-123.19002505 129.22768053 -123.19675366 127.19754948 -123.20376587 125.16741943 C-123.21572992 120.91399997 -123.21944767 116.66066166 -123.21826172 112.40722656 C-123.21805877 106.97578803 -123.24534066 101.54487411 -123.27980614 96.11355972 C-123.30212347 91.92004032 -123.30609775 87.72664611 -123.30504227 83.53307343 C-123.30739172 81.53173773 -123.31617803 79.53039823 -123.331707 77.5291214 C-123.43060583 63.46518045 -122.96382539 52.73552072 -112.73828125 42.09765625 C-107.48333257 37.58834218 -101.52831663 34.40051859 -95.47949219 31.07763672 C-91.55245315 28.89845792 -87.67470494 26.63613722 -83.79101562 24.38085938 C-80.48413955 22.46259353 -77.17060499 20.55629418 -73.85546875 18.65234375 C-69.63939684 16.22944415 -65.43101532 13.79449316 -61.23204041 11.34210205 C-58.73301508 9.88428522 -56.22983199 8.43370424 -53.72598267 6.98419189 C-52.53484526 6.29246298 -51.34546536 5.5976969 -50.15805054 4.89959717 C-32.88668925 -5.24826489 -18.8415295 -9.1493847 0 0 Z M-45.72265625 23.3671875 C-47.64071946 24.5215402 -49.56005697 25.67377742 -51.48046875 26.82421875 C-52.49915039 27.43475098 -53.51783203 28.0452832 -54.56738281 28.67431641 C-61.12319356 32.55725344 -67.75659681 36.30591809 -74.38226318 40.06799316 C-92.4389028 48.87514149 -92.4389028 48.87514149 -104.84765625 63.6171875 C-105.37777224 66.43478507 -105.38620293 69.16656506 -105.34936523 72.02758789 C-105.35476822 72.83827225 -105.3601712 73.6489566 -105.36573792 74.48420715 C-105.37817235 77.14479894 -105.36177147 79.80429745 -105.34375 82.46484375 C-105.3439051 84.32376665 -105.34539584 86.18268987 -105.34815979 88.04161072 C-105.34954136 91.92933523 -105.33702508 95.81668973 -105.31420898 99.7043457 C-105.28580531 104.67987459 -105.28857031 109.65478999 -105.3012991 114.63036442 C-105.30826341 118.46603101 -105.30045871 122.30155654 -105.28804207 126.13720512 C-105.28353629 127.97156673 -105.28318312 129.80594353 -105.28710747 131.64030647 C-105.2900276 134.2059126 -105.27347555 136.7706815 -105.25170898 139.33618164 C-105.25621063 140.08907471 -105.26071228 140.84196777 -105.26535034 141.61767578 C-105.18624371 147.24775958 -103.89710964 151.31272356 -100.13867188 155.53881836 C-95.1818697 159.7617313 -90.05575612 163.06334694 -84.34765625 166.1796875 C-82.48499599 167.22013579 -80.62304477 168.26185419 -78.76171875 169.3046875 C-77.79524414 169.84351563 -76.82876953 170.38234375 -75.83300781 170.9375 C-70.76105029 173.79120197 -65.74365303 176.73753976 -60.72265625 179.6796875 C-58.7175964 180.85181653 -56.71238946 182.02369399 -54.70703125 183.1953125 C-53.73314453 183.76443359 -52.75925781 184.33355469 -51.75585938 184.91992188 C-47.16640518 187.59838775 -42.57064281 190.26590114 -37.97265625 192.9296875 C-37.17585449 193.39189697 -36.37905273 193.85410645 -35.55810547 194.33032227 C-34.83123535 194.75112061 -34.10436523 195.17191895 -33.35546875 195.60546875 C-32.7227002 195.97196533 -32.08993164 196.33846191 -31.43798828 196.71606445 C-26.07883907 199.75269628 -20.85992528 199.60828647 -14.84765625 198.6171875 C-9.32711669 196.49441654 -4.32728071 193.2358259 0.68505859 190.13525391 C3.15079227 188.61814209 5.6391015 187.1486468 8.140625 185.69140625 C11.7452471 183.59014971 15.336372 181.46839663 18.91796875 179.328125 C22.9221959 176.93638248 26.93988219 174.56990079 30.97015381 172.22247314 C33.69624455 170.63183925 36.41586541 169.03033996 39.13464355 167.42724609 C40.46576951 166.64543408 41.79946965 165.86798632 43.13586426 165.09521484 C56.22820112 157.57501479 56.22820112 157.57501479 63.15234375 144.6171875 C63.34473965 141.97912638 63.44626203 139.44698332 63.44287109 136.81103516 C63.44958832 136.05247726 63.45630554 135.29391937 63.46322632 134.51237488 C63.48213754 132.01859894 63.4861269 129.52509307 63.48828125 127.03125 C63.4947136 125.28778983 63.50144229 123.54433074 63.50845337 121.8008728 C63.52040868 118.15107725 63.52413596 114.50137624 63.52294922 110.8515625 C63.52274605 106.18889979 63.55005388 101.5268467 63.58449364 96.86432838 C63.60679704 93.26450855 63.61078572 89.66483469 63.60972977 86.06495285 C63.61208032 84.34665195 63.62087297 82.62834669 63.6363945 80.91011429 C63.91190724 66.7849228 63.91190724 66.7849228 56.64453125 55.05078125 C51.84463671 51.45160986 46.49083012 48.62324198 41.27734375 45.6796875 C39.53268492 44.68460036 37.78803381 43.68949922 36.04397583 42.69335938 C34.85172787 42.01264644 33.65907745 41.33263796 32.46603394 40.65332031 C26.45839707 37.23084855 20.49243438 33.7381867 14.52734375 30.2421875 C7.65313998 26.22470088 0.77058138 22.22401722 -6.16015625 18.3046875 C-6.8061377 17.93746582 -7.45211914 17.57024414 -8.11767578 17.19189453 C-12.28429602 14.85095544 -15.6237351 13.45066182 -20.41015625 13.3046875 C-21.19519531 13.26730469 -21.98023438 13.22992188 -22.7890625 13.19140625 C-31.22138877 14.36525499 -38.57925429 18.9949792 -45.72265625 23.3671875 Z " fill="#4599EF" transform="translate(158.84765625,35.3828125)"/>
<path d="M0 0 C3.58495195 3.12729851 4.72395292 4.75778813 5.75 9.375 C3.73965761 19.09165489 -8.75284069 27.93568925 -15.6328125 34.8359375 C-16.60675272 35.81411879 -16.60675272 35.81411879 -17.6003685 36.81206131 C-21.02694889 40.25354018 -24.45632214 43.69220563 -27.88818359 47.12841797 C-31.42671596 50.67246525 -34.95585219 54.22571937 -38.48294258 57.78114891 C-41.20597375 60.52279173 -43.93567804 63.25771526 -46.66726303 65.99083328 C-47.9718837 67.29847713 -49.27400698 68.60861762 -50.57355118 69.92130661 C-52.38724583 71.75205324 -54.21016517 73.57310423 -56.03564453 75.39208984 C-56.56771515 75.93337524 -57.09978577 76.47466064 -57.64797974 77.03234863 C-61.46412602 80.80612564 -64.60302852 82.5206057 -69.8125 83.5625 C-78.78319208 81.97943669 -87.21709719 69.93425785 -93.51147461 63.61889648 C-95.45377265 61.67118197 -97.4014314 59.7289407 -99.34960938 57.78710938 C-100.58625875 56.54980017 -101.82259842 55.31218132 -103.05859375 54.07421875 C-103.64080185 53.49403488 -104.22300995 52.91385101 -104.82286072 52.31608582 C-109.89179871 47.21726456 -109.89179871 47.21726456 -110.25 43.1875 C-109.96929042 39.60845281 -109.12271416 37.85749983 -107 35 C-103.1912045 33.09560225 -100.01184073 32.85716753 -96 34 C-91.38308682 37.4676749 -87.55345698 41.59934628 -83.625 45.8125 C-82.53728894 46.94541085 -81.44746121 48.07629347 -80.35546875 49.20507812 C-78.35721319 51.27658352 -76.37165911 53.35864182 -74.40087891 55.45629883 C-72.62626672 57.33647825 -70.8334828 59.17864094 -69 61 C-68.25275665 60.25053604 -67.50551331 59.50107208 -66.73562622 58.72889709 C-59.7045393 51.67756739 -52.67083532 44.62885767 -45.63453865 37.58272648 C-42.01691262 33.95987452 -38.40022569 30.33609517 -34.78564453 26.71020508 C-31.29950067 23.21322208 -27.8109431 19.71866407 -24.3206749 16.22579765 C-22.98730491 14.89057528 -21.65481759 13.55447089 -20.32321548 12.21748543 C-18.46273732 10.34978326 -16.59918885 8.48519849 -14.73486328 6.62133789 C-14.18100952 6.06388885 -13.62715576 5.50643982 -13.05651855 4.93209839 C-8.63341385 0.52097221 -6.39463028 -0.75868495 0 0 Z " fill="#162639" transform="translate(191,102)"/>
<path d="M0 0 C6.14587738 0.2410148 6.14587738 0.2410148 8.578125 2.40234375 C9.78844931 3.88046971 10.90220903 5.43647953 12 7 C7.69235185 5.43358249 3.93828536 3.31663844 0 1 C0 0.67 0 0.34 0 0 Z " fill="#2084EE" transform="translate(99,236)"/>
</svg>
